<svg width="175" height="352" viewBox="0 0 175 352" fill="none" xmlns="http://www.w3.org/2000/svg">
<path d="M46.4256 11.0225C43.9256 13.5225 41.4254 23.0226 45.4254 26.0226C49.4254 29.0226 52.9255 28.0226 51.4255 24.0226C50.6203 21.8754 49.9591 26.6443 49.9062 31.5227C49.8605 35.7319 50.2675 40.0226 51.4255 40.0226C53.4255 40.0226 54.4255 40.0225 55.4255 39.5225C54.4255 40.5225 54.2255 41.7226 55.4255 42.5226C56.9255 43.5226 55.9256 43.6493 57.9256 46.1493C59.9256 48.6493 58.9256 48.6493 60.9256 49.6493C62.9256 50.6493 69.9255 45.5226 71.9255 48.0226C73.5255 50.0226 74.9255 53.5226 73.4255 53.5226C71.9255 53.5226 71.5593 51.5225 76.4255 51.5225C79.9256 51.5225 82.4256 51.5226 84.9256 53.5226C88.2385 56.173 89.4256 58.5227 88.9256 61.0227C88.4256 63.5227 85.4256 67.5 83.4256 67C81.4256 66.5 85.5702 63.5226 85.5702 61.5226C85.5702 59.5226 82.4256 57.5225 82.9255 56.5226C83.5963 55.181 88.4256 61.0226 83.4256 64.5226C82.1303 65.4294 82.7104 62.0227 82.2103 61.0227C81.0921 58.7867 79.0934 57.0774 79.9255 56.5226C81.4256 55.5225 85.0487 63.961 80.9256 66.0225C78.9256 67.0225 80.4255 65.4552 79.9255 64.0226C79.4255 62.5901 76.9256 60.5225 77.4255 58.5226C77.9105 56.5823 80.4254 62.0226 79.4255 65.0226C78.4256 68.0226 76.4255 67.0226 76.4255 65.0226C76.4255 63.0226 74.4255 60.0227 72.4255 61.0227C70.4255 62.0227 69.5 63.5226 66 64.0226C62.5 64.5226 55.694 80.1603 54.4256 85.0225C51.4256 96.5225 52.4254 103.523 46.4254 104.023C40.4253 104.523 39.9256 91.5225 41.9256 85.0225C43.9256 78.5225 56.1829 62.7653 60.4255 58.5226C61.9256 57.0225 67.4255 52.0226 69.9255 53.5226C73.4255 55.6226 76.9255 55.0226 73.4255 70.5226C69.9255 86.0226 53.9253 131.023 55.4255 180.523C55.6697 188.581 41.9255 192.523 36.9255 188.023C31.9255 183.523 29.9253 177.023 36.4253 177.023C42.9253 177.023 41.4252 183.523 46.4254 182.023C51.4255 180.523 39.9998 169 35.5 171.5C29.9253 174.597 32.6639 178.523 29.9253 182.023C24.1364 189.421 11.1875 186.995 15.9253 192.523C18.9253 196.023 42.9252 102.023 47.9253 108.023C52.9254 114.023 -9.07411 249.023 2.42562 257.523C13.9254 266.023 45.4255 244.523 47.9253 234.023C50.4251 223.523 40.4254 221.023 36.9255 215.023C33.4256 209.023 36.4257 205.523 43.9256 205.023C51.4255 204.523 36.9255 246.023 36.9255 257.523C36.9255 269.023 47.4255 274.023 51.4255 277.023C55.4255 280.023 62.9256 296.523 73.9256 293.523C84.9256 290.523 74.9253 276.023 70.4253 276.023C65.9253 276.023 48.9256 260.523 66.4256 257.523C83.9256 254.523 99.4256 247.523 93.4256 242.023C87.4256 236.523 46.4254 217.523 58.9256 185.523C61.3732 179.257 49.4256 300.023 66.4256 313.523C83.4256 327.023 98.9256 348.523 122.426 346.023C145.926 343.523 129.925 331.023 120.426 330.023C114.417 329.39 120.926 351.523 141.426 350.523C161.926 349.523 180.86 342.225 171 336.5C96.0744 293 128.925 186.5 129.925 167C130.925 147.5 103.207 100.853 112.425 87.0227C113.425 85.5228 128.425 77.0226 129.925 81.0226C131.425 85.0226 137.425 110.023 136.925 118.023C136.097 131.282 124.425 167.023 125.925 172.523C127.425 178.023 128.726 185.219 127.925 188.023C126.925 191.523 125.426 193.523 124.426 194.523C123.426 195.523 122.252 186.168 123.5 187C125 188 124.764 197.235 122.926 198.023C119.426 199.523 118.426 190 119.426 188.523C120.426 187.045 121.866 199.538 119.925 200.023C117.925 200.523 117.846 199.023 116.926 197.023C115.447 193.811 115.426 190.523 115.426 189.523C115.426 188.523 117.426 198.023 118.426 201.023C119.426 204.023 118 203.546 116.5 202C114.074 199.5 113 197.5 112 195C111 192.5 110 186 110.426 184.023C110.758 182.477 113.981 171.365 114.426 170.023C115.426 167 119.425 126.523 121.925 117.023C123.325 111.704 112.278 95.3486 114.926 89.0226C117.573 82.6967 144.926 91.5226 138.926 81.0226C132.926 70.5226 136.926 78.5227 138.926 74.0227C140.926 69.5227 128.925 64.5226 134.925 64.5226C141.889 64.5226 128.925 54.5227 130.925 52.5227C136.459 46.9887 116.925 44.0227 114.425 42.0227C109.596 38.159 114.925 36.0227 108.925 32.5227C103.653 29.4474 92.7311 27.3002 93.9253 22.5227C95.925 14.5227 82.9253 0.355933 72.9253 1.02272C61.9253 1.75619 57.4253 6.52267 56.4253 8.02267C56.4253 8.02267 48.9256 8.52253 46.4256 11.0225Z" stroke="#767676" stroke-linejoin="round"/>
</svg>
