{
  "accessors": [
    {
      "bufferView": 2,
      "componentType": 5126,
      "count": 1512,
      "max": [
        0.14854396879673004,
        0.14854395389556885,
        0.25
      ],
      "min": [
        -0.14854395389556885,
        -0.14854396879673004,
        -0.25
      ],
      "type": "VEC3"
    },
    {
      "bufferView": 2,
      "byteOffset": 18144,
      "componentType": 5126,
      "count": 1512,
      "max": [
        0.9999927282333374,
        0.9999927282333374,
        0.9999997615814209
      ],
      "min": [
        -0.9999927282333374,
        -0.9999927878379822,
        -0.9997380375862122
      ],
      "type": "VEC3"
    },
    {
      "bufferView": 3,
      "componentType": 5126,
      "count": 1512,
      "max": [
        1.0,
        0.9999628067016602,
        0.9311003684997559,
        1.0
      ],
      "min": [
        -0.9999976754188538,
        -0.9999817609786987,
        -0.8262829780578613,
        1.0
      ],
      "type": "VEC4"
    },
    {
      "bufferView": 1,
      "componentType": 5126,
      "count": 1512,
      "max": [
        0.9899411201477051,
        0.7249301075935364
      ],
      "min": [
        0.010058880783617496,
        0.010058879852294922
      ],
      "type": "VEC2"
    },
    {
      "bufferView": 0,
      "componentType": 5125,
      "count": 7092,
      "type": "SCALAR"
    }
  ],
  "asset": {
    "extras": {
      "author": "wolfgar74 (https://sketchfab.com/wolfgar74)",
      "license": "CC-BY-4.0 (http://creativecommons.org/licenses/by/4.0/)",
      "source": "https://sketchfab.com/3d-models/egyptian-vase-free-0a505cc6635745edbcf9476b65402a53",
      "title": "Egyptian Vase (Free)"
    },
    "generator": "Sketchfab-12.68.0",
    "version": "2.0"
  },
  "bufferViews": [
    {
      "buffer": 0,
      "byteLength": 28368,
      "name": "floatBufferViews",
      "target": 34963
    },
    {
      "buffer": 0,
      "byteLength": 12096,
      "byteOffset": 28368,
      "byteStride": 8,
      "name": "floatBufferViews",
      "target": 34962
    },
    {
      "buffer": 0,
      "byteLength": 36288,
      "byteOffset": 40464,
      "byteStride": 12,
      "name": "floatBufferViews",
      "target": 34962
    },
    {
      "buffer": 0,
      "byteLength": 24192,
      "byteOffset": 76752,
      "byteStride": 16,
      "name": "floatBufferViews",
      "target": 34962
    }
  ],
  "buffers": [
    {
      "byteLength": 100944,
      "uri": "scene1.bin"
    }
  ],
  "images": [
    {
      "uri": "textures1/Clay_Pottery_baseColor.png"
    },
    {
      "uri": "textures1/Clay_Pottery_metallicRoughness.png"
    },
    {
      "uri": "textures1/Clay_Pottery_normal.png"
    }
  ],
  "materials": [
    {
      "doubleSided": true,
      "name": "Clay_Pottery",
      "normalTexture": {
        "index": 2
      },
      "occlusionTexture": {
        "index": 1
      },
      "pbrMetallicRoughness": {
        "baseColorTexture": {
          "index": 0
        },
        "metallicFactor": 0.0,
        "metallicRoughnessTexture": {
          "index": 1
        }
      }
    }
  ],
  "meshes": [
    {
      "name": "Clay_Pottery_Clay_Pottery_0",
      "primitives": [
        {
          "attributes": {
            "NORMAL": 1,
            "POSITION": 0,
            "TANGENT": 2,
            "TEXCOORD_0": 3
          },
          "indices": 4,
          "material": 0,
          "mode": 4
        }
      ]
    }
  ],
  "nodes": [
    {
      "children": [
        1
      ],
      "matrix": [
        1.0,
        0.0,
        0.0,
        0.0,
        0.0,
        2.220446049250313e-16,
        -1.0,
        0.0,
        0.0,
        1.0,
        2.220446049250313e-16,
        0.0,
        0.0,
        0.0,
        0.0,
        1.0
      ],
      "name": "Sketchfab_model"
    },
    {
      "children": [
        2
      ],
      "matrix": [
        1.0,
        0.0,
        0.0,
        0.0,
        0.0,
        0.0,
        1.0,
        0.0,
        0.0,
        -1.0,
        0.0,
        0.0,
        0.0,
        0.0,
        0.0,
        1.0
      ],
      "name": "Clay_Pottery.fbx"
    },
    {
      "children": [
        3
      ],
      "name": "RootNode"
    },
    {
      "children": [
        4
      ],
      "matrix": [
        500.0,
        0.0,
        0.0,
        0.0,
        0.0,
        -8.14603396959157e-05,
        -499.9999999999934,
        0.0,
        0.0,
        499.9999999999934,
        -8.14603396959157e-05,
        0.0,
        0.0,
        0.0,
        0.0,
        1.0
      ],
      "name": "Clay_Pottery"
    },
    {
      "mesh": 0,
      "name": "Clay_Pottery_Clay_Pottery_0"
    }
  ],
  "samplers": [
    {
      "magFilter": 9729,
      "minFilter": 9987,
      "wrapS": 10497,
      "wrapT": 10497
    }
  ],
  "scene": 0,
  "scenes": [
    {
      "name": "Sketchfab_Scene",
      "nodes": [
        0
      ]
    }
  ],
  "textures": [
    {
      "sampler": 0,
      "source": 0
    },
    {
      "sampler": 0,
      "source": 1
    },
    {
      "sampler": 0,
      "source": 2
    }
  ]
}
