{
  "accessors": [
    {
      "bufferView": 2,
      "componentType": 5126,
      "count": 39359,
      "max": [
        1.4219563007354736,
        4.022684097290039,
        2.018052816390991
      ],
      "min": [
        -1.421955943107605,
        0.0006965795764699578,
        -1.7963619232177734
      ],
      "type": "VEC3"
    },
    {
      "bufferView": 2,
      "byteOffset": 472308,
      "componentType": 5126,
      "count": 39359,
      "max": [
        1.0,
        1.0,
        0.9999982118606567
      ],
      "min": [
        -0.999982476234436,
        -1.0,
        -0.9999991655349731
      ],
      "type": "VEC3"
    },
    {
      "bufferView": 1,
      "componentType": 5126,
      "count": 39359,
      "max": [
        1.6419589519500732,
        1.173742651939392
      ],
      "min": [
        -0.6320704221725464,
        -0.5137812495231628
      ],
      "type": "VEC2"
    },
    {
      "bufferView": 0,
      "componentType": 5125,
      "count": 231648,
      "type": "SCALAR"
    }
  ],
  "asset": {
    "extras": {
      "author": "thomasrigsby (https://sketchfab.com/thomasrigsby)",
      "license": "CC-BY-4.0 (http://creativecommons.org/licenses/by/4.0/)",
      "source": "https://sketchfab.com/3d-models/teapot-1d3405416b0f4c3f80c28dfeb85af958",
      "title": "Teapot"
    },
    "generator": "Sketchfab-12.67.0",
    "version": "2.0"
  },
  "bufferViews": [
    {
      "buffer": 0,
      "byteLength": 926592,
      "name": "floatBufferViews",
      "target": 34963
    },
    {
      "buffer": 0,
      "byteLength": 314872,
      "byteOffset": 926592,
      "byteStride": 8,
      "name": "floatBufferViews",
      "target": 34962
    },
    {
      "buffer": 0,
      "byteLength": 944616,
      "byteOffset": 1241464,
      "byteStride": 12,
      "name": "floatBufferViews",
      "target": 34962
    }
  ],
  "buffers": [
    {
      "byteLength": 2186080,
      "uri": "scene2.bin"
    }
  ],
  "materials": [
    {
      "doubleSided": true,
      "name": "TeaPotMaterial",
      "pbrMetallicRoughness": {
        "metallicFactor": 0.0,
        "roughnessFactor": 0.217391
      }
    }
  ],
  "meshes": [
    {
      "name": "Object_0",
      "primitives": [
        {
          "attributes": {
            "NORMAL": 1,
            "POSITION": 0,
            "TEXCOORD_0": 2
          },
          "indices": 3,
          "material": 0,
          "mode": 4
        }
      ]
    }
  ],
  "nodes": [
    {
      "children": [
        1
      ],
      "matrix": [
        1.0,
        0.0,
        0.0,
        0.0,
        0.0,
        2.220446049250313e-16,
        -1.0,
        0.0,
        0.0,
        1.0,
        2.220446049250313e-16,
        0.0,
        0.0,
        0.0,
        0.0,
        1.0
      ],
      "name": "Sketchfab_model"
    },
    {
      "children": [
        2
      ],
      "name": "root"
    },
    {
      "children": [
        3
      ],
      "matrix": [
        1.0,
        0.0,
        0.0,
        0.0,
        0.0,
        2.220446049250313e-16,
        1.0,
        0.0,
        0.0,
        -1.0,
        2.220446049250313e-16,
        0.0,
        0.0,
        0.0,
        0.0,
        1.0
      ],
      "name": "GLTF_SceneRootNode"
    },
    {
      "children": [
        4
      ],
      "matrix": [
        0.9985035778149299,
        0.0,
        0.05468642510517722,
        0.0,
        -0.0,
        1.0,
        0.0,
        0.0,
        -0.05468642510517722,
        -0.0,
        0.9985035778149299,
        0.0,
        0.0,
        0.0,
        0.0,
        1.0
      ],
      "name": "Teapot_0"
    },
    {
      "mesh": 0,
      "name": "Object_4"
    }
  ],
  "scene": 0,
  "scenes": [
    {
      "name": "Sketchfab_Scene",
      "nodes": [
        0
      ]
    }
  ]
}
