{
  "accessors": [
    {
      "bufferView": 2,
      "componentType": 5126,
      "count": 65532,
      "max": [
        0.4970319867134094,
        0.9702939987182617,
        0.6012889742851257
      ],
      "min": [
        -0.4961659908294678,
        -0.9922209978103638,
        -0.6012889742851257
      ],
      "type": "VEC3"
    },
    {
      "bufferView": 2,
      "byteOffset": 786384,
      "componentType": 5126,
      "count": 65532,
      "max": [
        0.9999980926513672,
        0.9999937415122986,
        0.99994957447052
      ],
      "min": [
        -0.9999604225158691,
        -0.995811402797699,
        -0.9999827742576599
      ],
      "type": "VEC3"
    },
    {
      "bufferView": 1,
      "componentType": 5126,
      "count": 65532,
      "max": [
        0.9048470258712769,
        0.9946979880332947
      ],
      "min": [
        0.009901000186800957,
        0.002822000067681074
      ],
      "type": "VEC2"
    },
    {
      "bufferView": 0,
      "componentType": 5125,
      "count": 363039,
      "type": "SCALAR"
    },
    {
      "bufferView": 2,
      "byteOffset": 1572768,
      "componentType": 5126,
      "count": 17882,
      "max": [
        0.49665701389312744,
        0.9922209978103638,
        0.4931260049343109
      ],
      "min": [
        -0.4970319867134094,
        -0.9773759841918945,
        -0.6012889742851257
      ],
      "type": "VEC3"
    },
    {
      "bufferView": 2,
      "byteOffset": 1787352,
      "componentType": 5126,
      "count": 17882,
      "max": [
        0.9999837279319763,
        0.9999272227287292,
        0.9999322891235352
      ],
      "min": [
        -0.9999880194664001,
        -0.9944812059402466,
        -0.9998520612716675
      ],
      "type": "VEC3"
    },
    {
      "bufferView": 1,
      "byteOffset": 524256,
      "componentType": 5126,
      "count": 17882,
      "max": [
        0.9873369932174683,
        0.9979529976844788
      ],
      "min": [
        0.009955000132322311,
        0.0024500000290572643
      ],
      "type": "VEC2"
    },
    {
      "bufferView": 0,
      "byteOffset": 1452156,
      "componentType": 5125,
      "count": 61977,
      "type": "SCALAR"
    }
  ],
  "asset": {
    "extras": {
      "author": "SHARK FIN (https://sketchfab.com/mo7amed85)",
      "license": "CC-BY-4.0 (http://creativecommons.org/licenses/by/4.0/)",
      "source": "https://sketchfab.com/3d-models/flower-vase-pbr-free-model-e00e4e508bcf4bfdada2a6b635084209",
      "title": "FLOWER VASE (PBR free model )"
    },
    "generator": "Sketchfab-15.36.0",
    "version": "2.0"
  },
  "bufferViews": [
    {
      "buffer": 0,
      "byteLength": 1700064,
      "name": "floatBufferViews",
      "target": 34963
    },
    {
      "buffer": 0,
      "byteLength": 667312,
      "byteOffset": 1700064,
      "byteStride": 8,
      "name": "floatBufferViews",
      "target": 34962
    },
    {
      "buffer": 0,
      "byteLength": 2001936,
      "byteOffset": 2367376,
      "byteStride": 12,
      "name": "floatBufferViews",
      "target": 34962
    }
  ],
  "buffers": [
    {
      "byteLength": 4369312,
      "uri": "scene4.bin"
    }
  ],
  "images": [
    {
      "uri": "textures4/model_baseColor.jpeg"
    }
  ],
  "materials": [
    {
      "doubleSided": true,
      "name": "model",
      "pbrMetallicRoughness": {
        "baseColorTexture": {
          "index": 0
        },
        "metallicFactor": 0.0,
        "roughnessFactor": 0.6
      }
    }
  ],
  "meshes": [
    {
      "name": "Object_0",
      "primitives": [
        {
          "attributes": {
            "NORMAL": 1,
            "POSITION": 0,
            "TEXCOORD_0": 2
          },
          "indices": 3,
          "material": 0,
          "mode": 4
        }
      ]
    },
    {
      "name": "Object_1",
      "primitives": [
        {
          "attributes": {
            "NORMAL": 5,
            "POSITION": 4,
            "TEXCOORD_0": 6
          },
          "indices": 7,
          "material": 0,
          "mode": 4
        }
      ]
    }
  ],
  "nodes": [
    {
      "children": [
        1
      ],
      "matrix": [
        0.6903688311576843,
        -0.7169415354728699,
        -0.09687992930412308,
        0.0,
        0.04266807809472084,
        0.17402911186218284,
        -0.9838156700134277,
        0.0,
        0.7221982479095459,
        0.6750620007514954,
        0.15073479712009444,
        0.0,
        0.0,
        0.0,
        0.0,
        1.0
      ],
      "name": "Sketchfab_model"
    },
    {
      "children": [
        2,
        3
      ],
      "name": "model.obj.cleaner.materialmerger.gles"
    },
    {
      "mesh": 0,
      "name": "Object_2"
    },
    {
      "mesh": 1,
      "name": "Object_3"
    }
  ],
  "samplers": [
    {
      "magFilter": 9729,
      "minFilter": 9987,
      "wrapS": 10497,
      "wrapT": 10497
    }
  ],
  "scene": 0,
  "scenes": [
    {
      "name": "Sketchfab_Scene",
      "nodes": [
        0
      ]
    }
  ],
  "textures": [
    {
      "sampler": 0,
      "source": 0
    }
  ]
}
